<!DOCTYPE svg PUBLIC "-//W3C//DTD SVG 1.1//EN" "http://www.w3.org/Graphics/SVG/1.1/DTD/svg11.dtd">
<!-- Uploaded to: SVG Repo, www.svgrepo.com, Transformed by: SVG Repo Mixer Tools -->
<svg width="64px" height="64px" viewBox="0 0 1024 1024" class="icon" version="1.1" xmlns="http://www.w3.org/2000/svg" fill="#000000">
<g id="SVGRepo_bgCarrier" stroke-width="0"/>
<g id="SVGRepo_tracerCarrier" stroke-linecap="round" stroke-linejoin="round"/>
<g id="SVGRepo_iconCarrier">
<path d="M588.8 883.2c0 14.08-11.52 25.6-25.6 25.6h-38.4c-14.08 0-25.6-11.52-25.6-25.6V140.8c0-14.08 11.52-25.6 25.6-25.6h38.4c14.08 0 25.6 11.52 25.6 25.6v742.4z" fill="#c39113"/>
<path d="M563.2 921.6h-38.4c-21.76 0-38.4-16.64-38.4-38.4V140.8c0-21.76 16.64-38.4 38.4-38.4h38.4c21.76 0 38.4 16.64 38.4 38.4v742.4c0 21.76-16.64 38.4-38.4 38.4z m-38.4-793.6c-7.68 0-12.8 5.12-12.8 12.8v742.4c0 7.68 5.12 12.8 12.8 12.8h38.4c7.68 0 12.8-5.12 12.8-12.8V140.8c0-7.68-5.12-12.8-12.8-12.8h-38.4z" fill="#231C1C"/>
<path d="M819.2 550.4c0 14.08-11.52 25.6-25.6 25.6H294.4c-14.08 0-25.6-11.52-25.6-25.6V217.6c0-14.08 11.52-25.6 25.6-25.6h499.2c14.08 0 25.6 11.52 25.6 25.6v332.8z" fill="#E24F32"/>
<path d="M793.6 588.8H294.4c-21.76 0-38.4-16.64-38.4-38.4V217.6c0-21.76 16.64-38.4 38.4-38.4h499.2c21.76 0 38.4 16.64 38.4 38.4v332.8c0 21.76-16.64 38.4-38.4 38.4zM294.4 204.8c-7.68 0-12.8 5.12-12.8 12.8v332.8c0 7.68 5.12 12.8 12.8 12.8h499.2c7.68 0 12.8-5.12 12.8-12.8V217.6c0-7.68-5.12-12.8-12.8-12.8H294.4z" fill="#231C1C"/>
<path d="M345.6 268.8h179.2v25.6H345.6zM588.8 268.8h102.4v25.6h-102.4z" fill="#231C1C"/>
<path d="M358.4 358.4h140.8v25.6H358.4z" fill="#231C1C"/>
<path d="M358.4 486.4h384v25.6H358.4z" fill="#231C1C"/>
</g>
</svg>