<!DOCTYPE svg PUBLIC "-//W3C//DTD SVG 1.1//EN" "http://www.w3.org/Graphics/SVG/1.1/DTD/svg11.dtd">
<!-- Uploaded to: SVG Repo, www.svgrepo.com, Transformed by: SVG Repo Mixer Tools -->
<svg fill="#000000" width="64px" height="64px" viewBox="0 0 24 24" id="filter-alt" data-name="Flat Color" xmlns="http://www.w3.org/2000/svg" class="icon flat-color">
<g id="SVGRepo_bgCarrier" stroke-width="0"/>
<g id="SVGRepo_tracerCarrier" stroke-linecap="round" stroke-linejoin="round"/>
<g id="SVGRepo_iconCarrier">
<path id="primary" d="M19,22a1,1,0,0,1-1-1V14a1,1,0,0,1,2,0v7A1,1,0,0,1,19,22Zm-7,0a1,1,0,0,1-1-1V7a1,1,0,0,1,2,0V21A1,1,0,0,1,12,22ZM5,18a1,1,0,0,1-1-1V3A1,1,0,0,1,6,3V17A1,1,0,0,1,5,18Zm14-7a1,1,0,0,1-1-1V3a1,1,0,0,1,2,0v7A1,1,0,0,1,19,11Z" style="fill: #000000;"/>
<path id="secondary" d="M22,12a3,3,0,1,1-3-3A3,3,0,0,1,22,12ZM12,2a3,3,0,1,0,3,3A3,3,0,0,0,12,2ZM5,16a3,3,0,1,0,3,3A3,3,0,0,0,5,16Z" style="fill: #c1551a;"/>
</g>
</svg>