<!DOCTYPE svg PUBLIC "-//W3C//DTD SVG 1.1//EN" "http://www.w3.org/Graphics/SVG/1.1/DTD/svg11.dtd">
<!-- Uploaded to: SVG Repo, www.svgrepo.com, Transformed by: SVG Repo Mixer Tools -->
<svg width="64px" height="64px" viewBox="0 0 1024 1024" fill="#000000" class="icon" version="1.1" xmlns="http://www.w3.org/2000/svg" stroke="#000000">
<g id="SVGRepo_bgCarrier" stroke-width="0"/>
<g id="SVGRepo_tracerCarrier" stroke-linecap="round" stroke-linejoin="round"/>
<g id="SVGRepo_iconCarrier">
<path d="M216.8 952c-37.6 0-68-30.4-68-68V553.6h48.8v329.6c0 10.4 8.8 19.2 19.2 19.2h568c10.4 0 19.2-8.8 19.2-19.2V564.8h48.8v319.2c0 37.6-30.4 68-68 68h-568z" fill=""/>
<path d="M151.2 556v327.2c0 36 29.6 65.6 65.6 65.6h568c36 0 65.6-28.8 65.6-65.6V567.2h-44v316.8c0 12-9.6 21.6-21.6 21.6h-568c-12 0-21.6-9.6-21.6-21.6v-328h-44z" fill=""/>
<path d="M498.4 302.4h48.8v627.2h-48.8z" fill=""/>
<path d="M544 927.2V304.8h-44v622.4H544z" fill=""/>
<path d="M172.8 569.6c-61.6 0-111.2-50.4-111.2-111.2V280.8h766.4c61.6 0 111.2 50.4 111.2 111.2v176.8H172.8z m-62.4-112c0 35.2 28 63.2 63.2 63.2h718.4v-128c0-35.2-28-63.2-63.2-63.2H110.4v128z" fill=""/>
<path d="M85.6 327.2h742.4c36 0 65.6 29.6 65.6 65.6v152.8l21.6-21.6H172.8c-36 0-65.6-29.6-65.6-65.6V304.8l-21.6 22.4z m0-44H64v174.4c0 60 48.8 108.8 108.8 108.8h764V392.8c0-60-48.8-108.8-108.8-108.8H85.6v-0.8z" fill=""/>
<path d="M432.8 329.6V215.2h179.2v113.6H432.8z m131.2-48.8V264H480.8v16.8h83.2z" fill=""/>
<path d="M456.8 261.6h131.2L566.4 240v65.6l21.6-21.6H456.8l21.6 21.6V240l-21.6 21.6z m0-44h-21.6v109.6H609.6V218.4H456.8v-0.8z" fill=""/>
<path d="M260.8 320.8c-2.4-3.2-6.4-8-12-15.2-9.6-12.8-18.4-25.6-25.6-37.6-9.6-14.4-16.8-28.8-23.2-41.6-20.8-44-22.4-76-4.8-99.2 40-53.6 112.8-96.8 161.6-96.8 24 0 50.4 20 92.8 71.2 8 9.6 16 20 24.8 31.2 13.6 19.2 29.6 40.8 45.6 64 5.6 8 10.4 15.2 14.4 21.6 2.4 4 6.4 10.4 6.4 10.4l-40.8 26.4s-4-6.4-6.4-9.6c-3.2-6.4-8-13.6-13.6-21.6-16-22.4-31.2-44-45.6-62.4-8-10.4-16-20.8-23.2-29.6-29.6-36-51.2-53.6-55.2-53.6-32.8 0-92.8 37.6-122.4 77.6-4 5.6-2.4 22.4 10.4 49.6 5.6 11.2 12 23.2 20 36 7.2 11.2 15.2 23.2 24 34.4 4.8 6.4 8.8 11.2 10.4 13.6l1.6 1.6-37.6 30.4-1.6-0.8z" fill=""/>
<path d="M505.6 228l36.8 24c0.8-1.6 2.4-4 4.8-8 4-6.4 8.8-13.6 14.4-20.8 14.4-21.6 30.4-43.2 45.6-63.2 8-10.4 16-20.8 24-29.6 28-33.6 52-54.4 57.6-54.4 34.4 0 93.6 37.6 124.8 78.4 4.8 6.4 2.4 25.6-10.4 52-5.6 11.2-12 24-20 36.8-7.2 12-16 24-24 34.4-4.8 6.4-8.8 11.2-10.4 13.6l33.6 28c2.4-3.2 6.4-8 12-15.2 8.8-12 17.6-24.8 25.6-37.6 8.8-14.4 16.8-28 23.2-41.6 18.4-40 23.2-72.8 5.6-96.8-40-50.4-112-96-161.6-96-24.8 0-52.8 24.8-91.2 70.4-8 9.6-16 20-24.8 31.2-16 20.8-31.2 42.4-46.4 64.8-5.6 8-10.4 15.2-14.4 21.6-2.4 3.2-4 6.4-4.8 8z" fill=""/>
</g>
</svg>